<svg width="521.1875px" height="137.6px" xmlns="http://www.w3.org/2000/svg" viewBox="-10.59375 6.200000000000003 521.1875 137.6" style="background: rgba(0, 0, 0, 0);" preserveAspectRatio="xMidYMid"><defs><filter id="editing-metal-beveled"><feGaussianBlur stdDeviation="4" in="SourceAlpha" result="blur"></feGaussianBlur><feSpecularLighting surfaceScale="5" specularConstant="0.8" specularExponent="7.5" lighting-color="#fff" in="blur" result="specular"><fePointLight x="-250" y="-50" z="300"></fePointLight></feSpecularLighting><feComposite operator="in" in="specular" in2="SourceAlpha" result="comp"></feComposite><feComposite in="SourceGraphic" in2="comp" operator="arithmetic" k1="0" k2="1" k3="1" k4="0"></feComposite></filter></defs><g filter="url(#editing-metal-beveled)"><g transform="translate(65.96998357772827, 101.8799934387207)"><path d="M30.34 0.64L29.18 0.64L10.11-48.90L10.11-3.90L16.26-1.34L16.26 0L2.56 0L2.56-1.34L8.58-3.90L8.58-48.90L2.69-49.79L2.69-51.20L16.83-51.20L32.90-10.11L49.28-51.20L62.21-51.20L62.21-49.79L56.32-48.90L56.32-2.30L62.21-1.34L62.21 0L43.39 0L43.39-1.34L49.28-2.30L49.28-46.98L30.34 0.64ZM77.06 0.64L77.06 0.64Q72.96 0.64 70.34-1.50L70.34-1.50L70.34-1.50Q67.71-3.65 67.71-7.87L67.71-7.87L67.71-7.87Q67.71-13.89 72.77-16.42L72.77-16.42L72.77-16.42Q77.82-18.94 84.48-18.94L84.48-18.94L88.77-18.94L88.77-23.87L88.77-23.87Q88.77-27.20 88.03-29.02L88.03-29.02L88.03-29.02Q87.30-30.85 85.76-31.58L85.76-31.58L85.76-31.58Q84.22-32.32 81.60-32.32L81.60-32.32L81.60-32.32Q78.59-32.32 77.12-31.14L77.12-31.14L77.12-31.14Q75.65-29.95 75.65-27.97L75.65-27.97L75.65-27.97Q75.65-26.11 77.44-25.54L77.44-25.54L77.44-25.54Q77.44-23.94 76.22-22.72L76.22-22.72L76.22-22.72Q75.01-21.50 73.34-21.50L73.34-21.50L73.34-21.50Q71.55-21.50 70.46-22.50L70.46-22.50L70.46-22.50Q69.38-23.49 69.38-25.54L69.38-25.54L69.38-25.54Q69.38-29.25 73.09-31.49L73.09-31.49L73.09-31.49Q76.80-33.73 82.37-33.73L82.37-33.73L82.37-33.73Q95.17-33.73 95.17-22.59L95.17-22.59L95.17-4.29L95.17-4.29Q95.17-2.88 95.78-2.14L95.78-2.14L95.78-2.14Q96.38-1.41 97.54-1.41L97.54-1.41L97.54-1.41Q98.62-1.41 99.26-2.14L99.26-2.14L99.26-2.14Q99.90-2.88 99.90-4.16L99.90-4.16L101.25-4.16L101.25-4.16Q101.25-1.92 99.81-0.64L99.81-0.64L99.81-0.64Q98.37 0.64 95.81 0.64L95.81 0.64L95.81 0.64Q92.86 0.64 90.85-1.06L90.85-1.06L90.85-1.06Q88.83-2.75 88.77-6.34L88.77-6.34L88.77-6.34Q87.23-3.07 84.06-1.22L84.06-1.22L84.06-1.22Q80.90 0.64 77.06 0.64L77.06 0.64ZM80.58-2.18L80.58-2.18Q82.30-2.18 84.13-3.20L84.13-3.20L84.13-3.20Q85.95-4.22 87.23-6.18L87.23-6.18L87.23-6.18Q88.51-8.13 88.77-10.88L88.77-10.88L88.77-17.54L84.48-17.54L84.48-17.54Q79.23-17.54 76.64-15.20L76.64-15.20L76.64-15.20Q74.05-12.86 74.05-8.64L74.05-8.64L74.05-8.64Q74.05-5.12 75.71-3.65L75.71-3.65L75.71-3.65Q77.38-2.18 80.58-2.18L80.58-2.18ZM119.81 1.28L118.02 1.28L104.32-31.23L100.16-31.87L100.16-33.15L116.10-33.15L116.10-31.87L111.49-31.04L121.15-6.98L129.79-30.21L124.16-31.81L124.16-33.09L135.62-33.09L135.62-31.81L131.58-30.27L119.81 1.28ZM143.55-40.58L143.55-40.58Q141.76-40.58 140.48-41.82L140.48-41.82L140.48-41.82Q139.20-43.07 139.20-44.86L139.20-44.86L139.20-44.86Q139.20-46.66 140.45-47.87L140.45-47.87L140.45-47.87Q141.70-49.09 143.55-49.09L143.55-49.09L143.55-49.09Q145.28-49.09 146.50-47.87L146.50-47.87L146.50-47.87Q147.71-46.66 147.71-44.86L147.71-44.86L147.71-44.86Q147.71-43.07 146.50-41.82L146.50-41.82L146.50-41.82Q145.28-40.58 143.55-40.58L143.55-40.58ZM152.13 0L136.77 0L136.77-1.28L141.25-1.92L141.25-31.17L136.77-31.81L136.77-33.09L147.65-33.09L147.65-1.92L152.13-1.28L152.13 0ZM172.80 0.64L172.80 0.64Q168.19 0.64 164.42-1.50L164.42-1.50L164.42-1.50Q160.64-3.65 158.43-7.58L158.43-7.58L158.43-7.58Q156.22-11.52 156.22-16.58L156.22-16.58L156.22-16.58Q156.22-21.89 158.56-25.79L158.56-25.79L158.56-25.79Q160.90-29.70 164.67-31.71L164.67-31.71L164.67-31.71Q168.45-33.73 172.80-33.73L172.80-33.73L172.80-33.73Q176.45-33.73 179.46-32.48L179.46-32.48L179.46-32.48Q182.46-31.23 184.22-28.99L184.22-28.99L184.22-28.99Q185.98-26.75 185.98-23.94L185.98-23.94L185.98-23.94Q185.98-21.82 184.90-20.70L184.90-20.70L184.90-20.70Q183.81-19.58 182.02-19.58L182.02-19.58L182.02-19.58Q180.29-19.58 179.14-20.74L179.14-20.74L179.14-20.74Q177.98-21.89 177.98-23.62L177.98-23.62L177.98-23.62Q178.94-24.26 179.33-25.02L179.33-25.02L179.33-25.02Q179.71-25.79 179.71-26.94L179.71-26.94L179.71-26.94Q179.71-29.31 177.82-30.82L177.82-30.82L177.82-30.82Q175.94-32.32 172.80-32.32L172.80-32.32L172.80-32.32Q168.19-32.32 165.73-29.02L165.73-29.02L165.73-29.02Q163.26-25.73 163.26-19.78L163.26-19.78L163.26-13.38L163.26-13.38Q163.26-7.68 165.66-4.22L165.66-4.22L165.66-4.22Q168.06-0.77 172.80-0.77L172.80-0.77L172.80-0.77Q177.15-0.77 180.38-3.23L180.38-3.23L180.38-3.23Q183.62-5.70 184.38-9.73L184.38-9.73L185.86-9.73L185.86-9.73Q184.96-4.99 181.41-2.18L181.41-2.18L181.41-2.18Q177.86 0.64 172.80 0.64L172.80 0.64ZM218.82 0.64L217.66 0.64L198.59-48.90L198.59-3.90L204.74-1.34L204.74 0L191.04 0L191.04-1.34L197.06-3.90L197.06-48.90L191.17-49.79L191.17-51.20L205.31-51.20L221.38-10.11L237.76-51.20L250.69-51.20L250.69-49.79L244.80-48.90L244.80-2.30L250.69-1.34L250.69 0L231.87 0L231.87-1.34L237.76-2.30L237.76-46.98L218.82 0.64ZM261.82-40.58L261.82-40.58Q260.03-40.58 258.75-41.82L258.75-41.82L258.75-41.82Q257.47-43.07 257.47-44.86L257.47-44.86L257.47-44.86Q257.47-46.66 258.72-47.87L258.72-47.87L258.72-47.87Q259.97-49.09 261.82-49.09L261.82-49.09L261.82-49.09Q263.55-49.09 264.77-47.87L264.77-47.87L264.77-47.87Q265.98-46.66 265.98-44.86L265.98-44.86L265.98-44.86Q265.98-43.07 264.77-41.82L264.77-41.82L264.77-41.82Q263.55-40.58 261.82-40.58L261.82-40.58ZM270.40 0L255.04 0L255.04-1.28L259.52-1.92L259.52-31.17L255.04-31.81L255.04-33.09L265.92-33.09L265.92-1.92L270.40-1.28L270.40 0ZM273.47 0L273.47-1.28L277.95-1.92L277.95-31.23L273.47-31.87L273.47-33.15L284.35-33.15L284.35-26.24L284.35-26.24Q286.72-29.70 289.92-31.71L289.92-31.71L289.92-31.71Q293.12-33.73 296.83-33.73L296.83-33.73L296.83-33.73Q301.44-33.73 304.10-31.42L304.10-31.42L304.10-31.42Q306.75-29.12 306.75-24.58L306.75-24.58L306.75-1.92L311.23-1.28L311.23 0L296.51 0L296.51-1.28L300.35-1.92L300.35-24.45L300.35-24.45Q300.35-27.78 299.01-29.60L299.01-29.60L299.01-29.60Q297.66-31.42 294.85-31.42L294.85-31.42L294.85-31.42Q291.90-31.42 289.18-29.28L289.18-29.28L289.18-29.28Q286.46-27.14 284.35-24L284.35-24L284.35-1.92L288.19-1.28L288.19 0L273.47 0ZM320.96-40.58L320.96-40.58Q319.17-40.58 317.89-41.82L317.89-41.82L317.89-41.82Q316.61-43.07 316.61-44.86L316.61-44.86L316.61-44.86Q316.61-46.66 317.86-47.87L317.86-47.87L317.86-47.87Q319.10-49.09 320.96-49.09L320.96-49.09L320.96-49.09Q322.69-49.09 323.90-47.87L323.90-47.87L323.90-47.87Q325.12-46.66 325.12-44.86L325.12-44.86L325.12-44.86Q325.12-43.07 323.90-41.82L323.90-41.82L323.90-41.82Q322.69-40.58 320.96-40.58L320.96-40.58ZM329.54 0L314.18 0L314.18-1.28L318.66-1.92L318.66-31.17L314.18-31.81L314.18-33.09L325.06-33.09L325.06-1.92L329.54-1.28L329.54 0ZM333.31 0L333.31-4.93L346.82-18.69L346.82-18.69Q352.13-24.19 354.91-29.41L354.91-29.41L354.91-29.41Q357.70-34.62 357.70-40.19L357.70-40.19L357.70-40.19Q357.70-45.82 355.30-48.42L355.30-48.42L355.30-48.42Q352.90-51.01 348.80-51.01L348.80-51.01L348.80-51.01Q345.60-51.01 343.23-49.28L343.23-49.28L343.23-49.28Q340.86-47.55 340.86-44.74L340.86-44.74L340.86-44.74Q340.86-41.34 344.26-39.68L344.26-39.68L344.26-39.68Q344.26-37.38 342.85-36.16L342.85-36.16L342.85-36.16Q341.44-34.94 339.52-34.94L339.52-34.94L339.52-34.94Q337.47-34.94 336-36.45L336-36.45L336-36.45Q334.53-37.95 334.53-40.58L334.53-40.58L334.53-40.58Q334.53-44.03 336.64-46.75L336.64-46.75L336.64-46.75Q338.75-49.47 342.27-50.98L342.27-50.98L342.27-50.98Q345.79-52.48 349.82-52.48L349.82-52.48L349.82-52.48Q357.63-52.48 361.41-48.80L361.41-48.80L361.41-48.80Q365.18-45.12 365.18-39.10L365.18-39.10L365.18-39.10Q365.18-35.46 363.68-32.42L363.68-32.42L363.68-32.42Q362.18-29.38 360.10-27.14L360.10-27.14L360.10-27.14Q358.02-24.90 354.43-21.76L354.43-21.76L352.64-20.22L337.34-6.72L361.22-6.72L363.84-16.19L365.50-16.19L365.50 0L333.31 0Z" fill="#444"></path></g></g><style>text {
  font-size: 64px;
  font-family: Arial Black;
  dominant-baseline: central;
  text-anchor: middle;
}</style></svg>